<svg xmlns="http://www.w3.org/2000/svg" xml:space="preserve" width="8081px" height="1776px" version="1.1" style="shape-rendering:geometricPrecision; text-rendering:geometricPrecision; image-rendering:optimizeQuality; fill-rule:evenodd; clip-rule:evenodd"
viewBox="0 0 8681 1908"
 xmlns:xlink="http://www.w3.org/1999/xlink">
 <g id="Capa_x0020_1">
  <metadata id="CorelCorpID_0Corel-Layer"/>
  <path class="fil0" d="M8431 919l0 0zm-2059 -45c-23,0 -74,-15 -81,-40 19,0 23,-4 40,-4l139 0c-3,10 0,3 -7,10 -18,20 -64,34 -91,34zm219 -40l94 0c0,75 -35,110 -85,148 -120,91 -289,115 -437,88 -35,-6 -52,-15 -75,-38 -59,-59 -56,-130 -56,-216 0,-61 28,-115 59,-147 56,-56 126,-54 205,-54 56,0 107,12 143,45 19,18 28,35 40,58 -48,0 -95,0 -143,0 -70,0 -74,-4 -117,26 -56,40 -63,138 8,191 172,129 356,-2 364,-101zm676 -103c10,-44 73,-173 103,-192 20,87 -43,160 -103,192zm-1352 108c0,146 50,298 202,339 153,41 378,11 507,-74 96,-62 177,-135 177,-265l36 0c0,45 -6,93 -14,133 -6,30 -21,93 -37,115 -16,24 -52,59 -75,77 -91,75 -199,100 -317,135 -90,27 -301,74 -395,24 -117,-63 -162,-165 -200,-284 -36,-114 -47,-231 -32,-349 13,-110 66,-183 163,-235 31,-17 78,-39 116,-45 104,-15 331,-16 435,24 82,33 123,61 167,155 14,31 33,87 33,129l-85 0c-3,-37 -21,-67 -38,-93 -67,-101 -167,-127 -298,-127 -210,0 -345,130 -345,341zm2516 80c0,-34 77,-223 89,-268 15,-58 41,-166 -34,-199 -65,-28 -75,32 -96,73 -9,20 -18,40 -29,60 -23,40 -45,77 -70,114 -33,50 -115,172 -160,202 20,-88 189,-414 42,-454 -63,-17 -69,42 -86,84 -9,23 -15,44 -23,66l-33 101c-5,14 -8,19 -15,30 -12,20 -21,39 -33,57 -6,9 -11,18 -17,27 -26,38 -70,96 -117,107 6,-24 18,-58 26,-81 30,-83 63,-162 78,-253 11,-65 -11,-137 -73,-141 -37,-2 -45,26 -69,43 -20,13 -53,29 -83,29 2,-23 16,-47 24,-70 10,-29 25,-89 -6,-118 -44,-43 -126,12 -162,58 -44,56 -64,178 19,197 -33,62 -57,128 -97,186 -15,21 -28,33 -42,52 -14,18 -30,30 -48,45 -44,39 -104,71 -167,67 -21,-2 -33,-7 -33,-26 0,-1 0,-3 0,-3l10 -57c7,-19 2,-10 24,-16 128,-35 267,-195 196,-333 -65,-126 -223,-15 -291,117 -12,23 -47,96 -49,125 -12,-13 -51,-13 -72,-14 -27,0 -57,1 -85,1l-13 -188c-15,-89 -41,-184 -78,-258 -91,-181 -234,-224 -425,-251 -121,-17 -270,-12 -393,-6 -88,4 -154,21 -227,41 -186,50 -294,144 -353,323 -44,136 -31,497 -20,643 19,239 61,458 134,676 12,35 22,66 35,100 12,32 30,69 38,101 20,-4 35,-12 55,-21l52 -23c-12,-23 -24,-56 -33,-84 -10,-31 -20,-57 -31,-89 -11,-31 -18,-57 -27,-90 -68,-235 -115,-473 -115,-722 0,-69 -13,-167 -2,-236 16,-108 -5,-200 57,-301 19,-31 25,-43 51,-69 43,-42 94,-66 152,-85 127,-43 174,-42 301,-52 33,-3 78,-8 116,-4 73,8 129,1 226,17 58,9 144,26 186,50 48,28 92,75 117,125 27,54 45,109 60,177 16,68 21,140 21,221l-36 0c0,-34 -14,-95 -22,-121 -30,-99 -99,-201 -191,-247 -155,-78 -344,-67 -517,-62 -83,3 -158,44 -216,75 -30,17 -57,40 -80,63 -27,27 -44,50 -65,83 -115,176 -49,554 44,715 76,131 185,229 353,228 158,0 231,-22 376,-62 140,-39 284,-93 374,-209 22,-29 42,-55 55,-92 28,-75 41,-152 41,-254 26,12 103,4 139,4 0,101 25,148 124,171 155,36 294,-93 375,-209 9,-14 21,-30 27,-44 9,-21 15,-34 24,-52l50 -103c16,0 37,1 53,-1 14,-1 30,-7 45,-8 -21,90 -99,238 -76,344 26,116 159,88 241,17 14,-12 23,-11 28,-30 15,12 8,27 19,48 21,37 58,46 101,42 83,-8 164,-145 193,-166 0,44 -14,96 22,135 25,29 82,39 132,23 109,-34 238,-233 235,-269 -4,-48 -62,-60 -91,-2 -27,55 -94,165 -159,180z"/>
  <path class="fil0" d="M2433 731c3,-13 14,-36 21,-51 8,-19 13,-31 22,-49 9,-18 15,-29 26,-46 16,-27 17,-33 34,-37 0,25 18,62 -33,124 -10,12 -17,23 -29,33 -11,9 -28,23 -41,26zm1441 -497c-18,4 -100,22 -110,29 -38,23 -24,79 16,79 26,0 32,-7 54,-9 -28,53 -78,203 -99,268 -10,28 -23,67 -30,95 -6,22 -4,26 -15,43 -23,38 -51,75 -83,105 -11,10 -21,18 -32,26 -77,62 -189,79 -189,36 0,-58 18,-107 37,-156 13,-32 87,-198 120,-207 1,19 4,10 4,27 0,50 -18,94 50,94 55,0 57,-210 -63,-210 -176,0 -227,229 -262,288 -44,74 -80,135 -159,177 15,-65 49,-120 49,-188 0,-53 -99,-101 -136,-47 -39,58 -85,110 -129,162l-70 65c-8,6 -14,8 -23,13 0,-75 27,-161 51,-214 24,-52 52,-101 86,-147 10,-13 4,-11 20,-15 10,42 -21,116 45,116 72,0 64,-210 -58,-210 -120,0 -212,147 -244,244 -12,38 -22,51 -42,79 -18,23 -36,48 -58,67l-69 52c-62,37 -151,41 -151,19 0,-36 11,-53 13,-81 46,-1 122,-47 153,-84 35,-43 75,-91 75,-167 0,-170 -172,-179 -287,13 -45,75 -138,293 -34,380 72,60 202,41 274,-6 18,-12 30,-21 46,-34l46 -39c6,12 5,26 12,41 5,13 13,27 21,38 21,27 61,37 97,37 44,0 107,-57 140,-88 15,-15 22,-30 39,-42 0,90 19,130 112,130 95,0 139,-81 174,-107 6,64 72,107 144,107 64,0 111,-10 161,-40 35,-21 78,-61 98,-72 1,54 26,112 81,112 115,0 115,-42 179,-85 2,103 130,101 201,54l67 -54c0,71 51,85 108,85 54,0 94,-42 130,-71 17,-13 30,-12 53,-14 79,-8 149,-37 206,-67 0,158 122,196 230,99l40 -35c15,-15 22,-30 39,-42 0,90 19,130 112,130 83,0 149,-73 194,-133 10,-14 17,-24 27,-40 13,-19 43,-66 49,-86 10,-33 -28,-64 -61,-47 -15,8 -22,24 -30,38 -40,71 -83,135 -157,174 8,-31 17,-58 27,-86 10,-30 23,-66 23,-102 0,-53 -100,-101 -137,-47 -34,51 -74,99 -115,145 -32,36 -63,72 -106,95 0,-75 26,-161 50,-214 25,-52 52,-101 86,-147 10,-13 4,-11 20,-15 9,39 -1,38 0,71 1,63 90,65 90,-22 0,-53 -10,-106 -57,-132 -65,-35 -141,14 -184,57 -20,20 -30,32 -47,56 -29,44 -48,92 -65,140 -9,26 -28,40 -48,55 -37,28 -90,54 -141,66 30,-45 56,-74 88,-128 28,-48 52,-97 65,-153 26,-108 -45,-106 -67,-81 -20,22 6,97 -141,293 -15,20 -27,36 -45,54 -25,26 -66,81 -101,91 7,-16 14,-41 20,-60 31,-92 127,-290 64,-374 -14,-19 -33,-27 -62,-27 -42,0 -59,84 -71,117 -33,87 -33,117 -80,202 -21,40 -47,77 -81,107 -12,11 -43,35 -59,39 25,-108 149,-321 91,-431 -13,-23 -37,-34 -69,-34 -39,0 -56,79 -70,117 -51,135 -53,201 -161,309 -19,19 -31,27 -55,39 2,-89 202,-524 210,-631 23,-2 51,-10 74,-16 34,-8 52,-15 52,-51 0,-53 -76,-36 -103,-23 0,-36 13,-82 -11,-114 -8,-11 -31,-24 -47,-24 -48,0 -66,82 -80,121 -6,16 -17,36 -19,53z"/>
  <path class="fil0" d="M859 1597c-17,-41 -20,-56 -23,-74 -3,-38 -4,-26 -1,-94 27,0 32,5 58,5 106,1 390,13 460,3 71,-10 177,-3 257,-8 29,-2 30,-7 20,25 -6,19 -10,33 -19,48 -9,16 -11,22 -22,42 -10,17 -18,31 -26,51 55,-81 160,-61 194,5 -21,-73 -16,-50 -32,-108 -22,-85 22,-70 64,-84 13,-5 42,-17 53,-24 53,-30 88,-64 113,-123 9,-21 14,-33 24,-52 10,-21 16,-35 26,-56l103 -210c9,-19 14,-34 23,-52 55,-108 90,-164 108,-283 25,-176 -29,-356 -194,-420 -95,-38 -160,-43 -270,-43l-936 0c-55,0 -102,-3 -127,29 -25,32 -1,76 56,78 100,5 212,0 313,0 209,0 418,0 627,0 123,0 191,-8 279,34 72,35 118,83 135,174 27,153 -92,348 -155,468l-55 102c-33,58 -66,138 -107,202 -23,37 -38,58 -92,64 -148,15 -303,12 -457,13l-312 0c-79,-6 -227,19 -338,-129 -77,-114 -96,-357 -118,-509l-83 -544c-6,-46 -11,-78 -51,-106 -37,-25 -79,-19 -137,-19 -48,0 -110,-4 -156,0 -40,2 -78,45 -53,92 22,40 66,33 124,33 52,0 105,0 157,0l137 955c28,181 143,297 319,338 -14,93 -40,96 -76,173 40,-73 152,-69 190,4z"/>
  <path class="fil0" d="M915 1000c0,36 37,67 63,67l761 0c90,0 104,-139 -13,-139l-734 0c-42,0 -77,29 -77,72z"/>
  <path class="fil0" d="M1117 812l774 0c78,0 78,-135 0,-135l-774 0c-80,0 -80,135 0,135z"/>
  <path class="fil0" d="M1184 489c0,30 26,68 58,68l779 0c78,0 76,-135 -4,-135l-770 0c-31,0 -63,36 -63,67z"/>
  <path class="fil0" d="M8270 391c0,21 23,52 57,40 26,-9 77,-43 101,-61 30,-23 74,-56 74,-91 0,-24 -22,-40 -44,-40 -29,0 -45,37 -98,72 -40,27 -90,47 -90,80z"/>
  <path class="fil0" d="M4246 292c0,-69 -100,-66 -144,-9 -86,107 61,152 123,61 8,-11 21,-36 21,-52z"/>
  <circle class="fil1" cx="764" cy="1654" r="102"/>
  <circle class="fil0" cx="1659" cy="1654" r="102"/>
 </g>
</svg>
